<svg xmlns="http://www.w3.org/2000/svg" width="133.592" height="16.368" viewBox="79.07 30.106 133.592 16.368"><path d="M142.474 41.6v-.755s0-.881 1.055-.928h7.8v-3.282l-7.821.017s-.908 0-.908-.881v-1.272a.837.837 0 0 1 .926-.882h8.696l.088-3.458h-11.678c-.559 0-2.245.294-2.245 2.406v11.832s-.294 1.986 2.42 1.986h11.527V42.54h-8.894s-.966-.044-.966-.928m-8.662-11.459h-2.48c-.666.02-1.116.829-1.116.829l-4.572 7.345s-.267.411-.473.411c-.205 0-.484-.42-.484-.42s-4.472-6.851-4.778-7.345c-.529-.881-1.107-.831-1.107-.831h-2.037c-1.96 0-1.962 2.247-1.962 2.247l-.088 13.965 4.51-.041V36.297s5.109 9.09 5.497 9.769c.203.294.323.408.458.408s.294-.088.488-.408c0-.024 5.538-10.175 5.538-10.175l-.015 10.525h4.364s.038-11.286.038-13.739c0-2.453-1.78-2.527-1.78-2.527m-39.794 7.598h-5.412s.017.177.053.382c.511.102.922.482 1.063.984.02.188.036.97.036 2.307 0 1.072-.588 1.143-.588 1.143H85.71c-2.024 0-2.23-1.722-2.23-1.722v-4.795c0-2.265 2.174-2.277 2.174-2.277h8.341v-3.614s-5.667-.05-9.86-.05-5.065 3.027-5.065 4.225v5.953c0 6.085 4.495 6.114 4.495 6.114h8.103c2.521 0 2.686-2.265 2.686-2.265s-.03-4.995 0-5.66c.03-.663-.347-.725-.347-.725m11.359-7.639h-2.612a1.396 1.396 0 0 0-1.37.926l-5.86 15.416 4.7-.047 1.114-3.447s5.843.024 5.744.018c.587 1.79 1.051 3.397 1.051 3.397h4.954s-5.847-14.703-6.3-15.531c-.452-.829-1.418-.729-1.418-.729m-2.997 9.49 1.783-5.153 1.698 5.16-3.481-.007Zm63.3 2.997h-5.335c-.925 0-.96-.96-.96-.96V30.2h-4.358s.065 12.555.065 14.488c0 1.848 1.446 1.695 1.692 1.695h11.13c-1.425 0-2.233-3.758-2.233-3.758M179.297 30.2h-6.993c-.881 0-4.463.682-4.463 4.52v6.8s.412 4.943 3.949 4.943c5.78 0 7.933-.11 7.933-.11s4.201-.663 4.201-5.04v-6.535s-.42-4.578-4.627-4.578m-2.08 12.517c-1.087 0-3.403-.027-3.403-.027s-1.68.132-1.68-2.092c0-2.532.12-5.188.12-5.188s-.114-1.702 1.866-1.702h3.675a1.904 1.904 0 0 1 1.84 2.036c0 1.995-.133 4.88-.133 4.88s.35 2.08-2.285 2.08m32.025-12.533H188.96c-2.095 0-2.303 1.354-2.303 1.963v14.182l4.204.058s-.015-4.92-.015-5.6c0-.881 1.15-.902 1.15-.902h3.76V36.9h-3.82c-1.175 0-1.175-.687-1.175-.687V33.74h10.498v12.633h4.172V33.8s3.82.1 7.23 0c-.563-2.118-2.115-3.634-3.407-3.634" fill="#141414" fill-rule="evenodd" data-name="Path 209"/></svg>