<svg xmlns="http://www.w3.org/2000/svg" width="24.864" height="24.864"><path d="M3.73 3.73C6.009 1.243 8.91 0 12.432 0c3.522 0 6.423 1.243 8.702 3.73 2.487 2.279 3.73 5.18 3.73 8.702 0 3.522-1.243 6.423-3.73 8.702-2.279 2.487-5.18 3.73-8.702 3.73-3.522 0-6.423-1.243-8.702-3.73C1.45 18.648 0 15.954 0 12.432 0 8.91 1.243 6.009 3.73 3.73Zm10.36 18.648c.828 0 1.864-.622 3.108-1.865.828-1.45 1.45-2.901 1.45-4.351a3.431 3.431 0 0 0-1.036-2.487c-.829-.829-1.658-1.243-2.694-1.243h-2.072c-.621 0-1.243-.207-1.864-.414-.415-.415-.622-.83-.622-1.45 0-.415.207-.622.414-.83.208-.207.622-.414.83-.414.206 0 .828.207 1.035.622.415.207.622.414.829.414.207 0 .622 0 .829-.207.207-.207.207-.622.207-.829 0-.622-.414-1.45-1.036-2.072.622-1.243 1.036-2.486 1.036-3.937a.446.446 0 0 0-.414-.414c-.622-.207-1.244-.415-1.658-.415-2.28.208-3.937.622-5.387 1.658C5.802 5.18 5.18 6.63 5.18 8.288s.622 2.9 1.658 3.937c1.036 1.036 2.486 1.657 3.936 1.657v.83c0 .828.208 1.45.83 2.071.414.622 1.035 1.036 1.864 1.243v3.73c0 .207 0 .207.207.414.207.208.207.208.415.208Z" fill="#2699fb" fill-rule="evenodd" data-name="Path 4"/></svg>