<svg xmlns="http://www.w3.org/2000/svg" width="55.519" height="38.959" viewBox="16.094 16.209 55.519 38.959"><path d="M54.99 55.027c.827.013 1.655-.019 2.479-.097 3.232-.461 5.262-1.818 7.195-5.377.99-1.977.938-5.112.938-5.112l.029-5.523s-.068-2.938-.405-4.408c-.338-1.469-.92-2.673-2.283-4.16a6.132 6.132 0 0 0-1.872-1.36 10.313 10.313 0 0 0-2.788-.882c-1.575-.276-6.056-.217-6.056-.217l-11.423-.076-7.97.155a30.377 30.377 0 0 0-3.186.144c-.89.054-1.74.399-2.415.982a3.82 3.82 0 0 0-1.422 1.936c-.317 1.107-.25 3.722-.25 3.722s.13 4.457.15 5.1c0 .403.162.527.27.562.11.035 2.774.34 2.78.353v-.056a2.738 2.738 0 0 1 2.371-1.643c1.79-.105 21.507-.405 23.12-.44a3.484 3.484 0 0 1 1.554.232c.239.129.426.336.529.587.18.385.24 1.687.24 1.687s-.026 1.763-.026 2.265c0 .673-.343 2.612-2.697 2.612-1.228.041-23.898-.2-23.898-.2a6.443 6.443 0 0 1-2.7-.555c-2.26-1.193-2.982-2.918-3.024-6.625 0-2.557.018-8.58.018-8.58s-.117-2.773 1.804-4.58c1.47-1.404 4.598-1.334 5.036-1.316h.112c.763 0 8.426 0 11.164-.077 2.877-.073 17.45.347 18.181.382.761.018 1.508.207 2.186.553.745.405 1.418.93 1.992 1.554a9.513 9.513 0 0 1 2.04 4.278c.258 1.692.587 7.756.587 7.756s.153 6.32-.435 8.618c-.4 1.566-.881 3.837-2.938 5.794-.373.382-.74.763-.74.763v.021c-.027.062-.089.112 0 .32.255.4.63.709 1.072.882.352.167 1.01-.115 1.663-.53 2.056-1.38 3.161-2.458 4.207-4.633 1.36-2.864 1.434-6.778 1.434-7.295 0-.517-.053-9.695-.053-9.695s.118-3.717-.294-6.097a15.59 15.59 0 0 0-2.459-5.92 8.283 8.283 0 0 0-3.261-2.791 11.873 11.873 0 0 0-1.719-.709c-2.644-.881-5.859-.881-8.52-.963-2.662-.082-13.992-.159-13.992-.159s-8.032.05-11.352.218c-5.254.258-6.576.358-8.956 1.366s-4.007 3.4-4.533 5.356c-.526 1.957-.353 5.224-.353 5.224l.109 13.785c-.04 1.46.022 2.92.185 4.372.376 2.874.882 4.152 1.381 4.919a7.163 7.163 0 0 0 2.891 2.614l.074.036c1.175.56 4.665.958 6.372.963 2.856.115 10.71.1 12.77.106l15.086-.14Z" fill="#141414" fill-rule="evenodd" data-name="Path 210"/></svg>