<svg xmlns="http://www.w3.org/2000/svg" width="14.223" height="14.731" viewBox="8.802 8.647 14.223 14.731"><g data-name="Group 121"><g data-name="Ellipse 241"><path d="M17.946 11.137a2.54 2.54 0 1 1 0 .1z" fill="#141414" fill-rule="evenodd"/><path d="M18.446 11.146a2.04 2.04 0 1 1 0 .08z" stroke-linejoin="round" stroke-linecap="round" stroke="#141414" fill="transparent" stroke-width=".80314"/></g><g data-name="Ellipse 242"><path d="M17.946 20.534a2.54 2.794 0 1 1 0 .1z" fill="#141414" fill-rule="evenodd"/><path d="M0 2.694a2.54 2.794 0 1 1 0 .1z" stroke-linejoin="round" stroke-linecap="round" stroke="#141414" fill="transparent" transform="matrix(.80314 0 0 .82104 18.446 18.331)"/></g><g data-name="Ellipse 243"><path d="M8.802 16.47a2.54 2.794 0 1 1 0 .1z" fill="#141414" fill-rule="evenodd"/><path d="M0 2.694a2.54 2.794 0 1 1 0 .1z" stroke-linejoin="round" stroke-linecap="round" stroke="#141414" fill="transparent" transform="matrix(.80314 0 0 .82104 9.302 14.267)"/></g><path d="m19.424 11.992-7.703 4.354 7.703 4.354" stroke-linejoin="round" stroke-linecap="round" stroke="#141414" fill="transparent" data-name="Path 206"/></g></svg>