<svg xmlns="http://www.w3.org/2000/svg" width="23.242" height="18.888"><path d="M23.242 2.236a9.514 9.514 0 0 1-2.739.75A4.781 4.781 0 0 0 22.6.348a9.546 9.546 0 0 1-3.028 1.157 4.77 4.77 0 0 0-8.126 4.35A13.536 13.536 0 0 1 1.618.872a4.768 4.768 0 0 0 1.475 6.366 4.735 4.735 0 0 1-2.16-.596v.06a4.771 4.771 0 0 0 3.825 4.675 4.752 4.752 0 0 1-2.153.083A4.773 4.773 0 0 0 7.06 14.77a9.567 9.567 0 0 1-5.923 2.042c-.384 0-.765-.023-1.137-.067a13.488 13.488 0 0 0 7.309 2.142c8.77 0 13.567-7.266 13.567-13.567 0-.207-.005-.413-.014-.617a9.67 9.67 0 0 0 2.38-2.468Z" fill="#fff" fill-rule="evenodd" data-name="Path 398"/></svg>