<svg xmlns="http://www.w3.org/2000/svg" width="29.383" height="29.407" viewBox="5.308 5.252 29.383 29.407"><path d="M20 5.266c-6.017 0-11.732-.535-13.914 5.066-.902 2.314-.771 5.319-.771 9.62 0 3.776-.121 7.325.77 9.62 2.178 5.605 7.94 5.068 13.912 5.068 5.763 0 11.704.6 13.913-5.068.903-2.337.77-5.297.77-9.62 0-5.737.317-9.44-2.465-12.222-2.818-2.817-6.628-2.464-12.221-2.464H20Zm-1.315 2.647c12.552-.02 14.15-1.416 13.268 17.97-.313 6.856-5.534 6.104-11.95 6.104-11.702 0-12.038-.335-12.038-12.04 0-11.842.928-12.028 10.72-12.038v.004Zm9.154 2.438a1.762 1.762 0 1 0 0 3.523 1.762 1.762 0 0 0 0-3.523ZM20 12.41a7.542 7.542 0 0 0 0 15.083 7.54 7.54 0 0 0 7.54-7.541A7.54 7.54 0 0 0 20 12.41Zm0 2.646c6.472 0 6.48 9.792 0 9.792-6.47 0-6.48-9.792 0-9.792Z" fill="#fff" fill-rule="evenodd" data-name="Path 397"/></svg>